<svg id="Layer_1" data-name="Layer 1" xmlns="http://www.w3.org/2000/svg" viewBox="0 0 98 98"><defs><style>.cls-1{fill:#231f20;}.cls-2{fill:#ed1c24;}.cls-3,.cls-6,.cls-7{fill:none;}.cls-4{fill:#e6e7e8;}.cls-5{fill:#2667b1;}.cls-6,.cls-7{stroke:#e6e7e8;stroke-miterlimit:10;}.cls-6{stroke-width:2.1px;}.cls-7{stroke-width:2px;}</style></defs><circle class="cls-1" cx="49" cy="49" r="49"/><path class="cls-2" d="M39.87,69.77" transform="translate(0)"/><line class="cls-3" x1="43.43" y1="62.87" x2="43.5" y2="62.87"/><path class="cls-4" d="M50.48,24.18,38.22,51.24a.88.88,0,0,0,.8,1.24H50.36A.87.87,0,0,1,51,53.92L43.7,62.55a.88.88,0,0,1-.67.31H33.52a.9.9,0,0,0-.8.52L25.89,78.47a.88.88,0,0,1-.8.51H15.2a.88.88,0,0,1-.8-1.24l1.75-3.85L45.54,9.32a.87.87,0,0,1,.8-.51H56.46a.88.88,0,0,1,.8.52l7.68,17.34L66.6,30.4a.88.88,0,0,1-.8,1.24H56a.88.88,0,0,1-.81-.52l-3.08-6.93A.87.87,0,0,0,50.48,24.18Z" transform="translate(0)"/><polygon class="cls-1" points="49.11 79.03 49.05 79.1 48.99 79.03 49.11 79.03"/><path class="cls-1" d="M39.87,69.74" transform="translate(0)"/><path class="cls-5" d="M82.8,79H39.45a.88.88,0,0,1-.88-.88V71.57a.93.93,0,0,1,.21-.57l1.08-1.26L61.05,44.85a.87.87,0,0,0-.67-1.44H46.63a.89.89,0,0,1-.79-1.28l4.21-8.31a.87.87,0,0,1,.79-.48H79.07a.87.87,0,0,1,.87.88v4.85a.85.85,0,0,1-.18.53l-1.54,2L55.52,68.29a.88.88,0,0,0,.67,1.45H79.51a.86.86,0,0,1,.8.52l3.29,7.52A.87.87,0,0,1,82.8,79Z" transform="translate(0)"/><path class="cls-4" d="M61.8,60.91h2.4a.92.92,0,0,0,.7-.33l6.45-7.76a.91.91,0,0,1,.7-.32h1.6a.88.88,0,0,1,.54.18,2.63,2.63,0,0,0,0,1.57.88.88,0,0,1-.54.18h-.82a.91.91,0,0,0-.7.34L68.35,59.3a1,1,0,0,0,.7,1.61h3v.65a.76.76,0,0,0,0,.15.81.81,0,0,0,0,.16v1H60.13" transform="translate(0)"/><path class="cls-2" d="M72,61.56v.31a.86.86,0,0,1,0-.16A.76.76,0,0,1,72,61.56Z" transform="translate(0)"/><path class="cls-6" d="M79,53.46a2.57,2.57,0,0,1-2.44,2.68,2.48,2.48,0,0,1-2.33-1.88,2.93,2.93,0,0,1,0-1.59,2.48,2.48,0,0,1,2.33-1.88A2.56,2.56,0,0,1,79,53.46Z" transform="translate(0)"/><path class="cls-7" d="M76.15,61.71a2.24,2.24,0,0,1-2.08,2.38A2.22,2.22,0,0,1,72,61.87a.86.86,0,0,1,0-.16.76.76,0,0,1,0-.15,2.2,2.2,0,0,1,2.07-2.2A2.23,2.23,0,0,1,76.15,61.71Z" transform="translate(0)"/></svg>