<svg id="Layer_1" data-name="Layer 1" xmlns="http://www.w3.org/2000/svg" viewBox="0 0 78.92 79.98"><defs><style>.cls-1{fill:#ed1c24;}.cls-2,.cls-5,.cls-6{fill:none;}.cls-3{fill:#231f20;}.cls-4{fill:#2667b1;}.cls-5,.cls-6{stroke:#231f20;stroke-miterlimit:10;}.cls-5{stroke-width:2.1px;}.cls-6{stroke-width:2px;}</style></defs><path class="cls-1" d="M139.83,79.35Z" transform="translate(-110.76 -9.98)"/><line class="cls-2" x1="33.13" y1="61.51" x2="33.21" y2="61.51"/><path class="cls-3" d="M151.91,27.47,138,58.26a1,1,0,0,0,.91,1.41h12.91a1,1,0,0,1,.76,1.65l-8.35,9.82a1,1,0,0,1-.76.35H132.61a1,1,0,0,0-.91.59l-7.78,17.16a1,1,0,0,1-.91.59H111.76a1,1,0,0,1-.91-1.41l2-4.38,33.43-73.47a1,1,0,0,1,.91-.59h11.52a1,1,0,0,1,.91.6l8.74,19.73,1.89,4.24a1,1,0,0,1-.91,1.41H158.15a1,1,0,0,1-.92-.59l-3.5-7.89A1,1,0,0,0,151.91,27.47Z" transform="translate(-110.76 -9.98)"/><polygon class="cls-3" points="39.59 79.9 39.52 79.98 39.45 79.9 39.59 79.9"/><path class="cls-3" d="M139.83,79.31Z" transform="translate(-110.76 -9.98)"/><path class="cls-4" d="M188.68,89.86H139.36a1,1,0,0,1-1-1V81.4a1,1,0,0,1,.24-.65l1.23-1.44L163.93,51a1,1,0,0,0-.76-1.65H147.52a1,1,0,0,1-.89-1.45l4.79-9.46a1,1,0,0,1,.89-.55h32.12a1,1,0,0,1,1,1v5.52a1,1,0,0,1-.2.61l-1.76,2.28L157.65,77.66a1,1,0,0,0,.76,1.65h26.53a1,1,0,0,1,.92.6l3.74,8.55A1,1,0,0,1,188.68,89.86Z" transform="translate(-110.76 -9.98)"/><path class="cls-3" d="M164.78,69.27h2.73a1,1,0,0,0,.8-.38l7.35-8.83a1,1,0,0,1,.8-.37h1.81a1,1,0,0,1,.61.21,3.15,3.15,0,0,0,0,1.79,1,1,0,0,1-.61.2h-.93a1.07,1.07,0,0,0-.8.38l-4.3,5.17a1.12,1.12,0,0,0,.8,1.83h3.35V70a.86.86,0,0,0,0,.16,1.15,1.15,0,0,0,0,.19v1.13h-13.5" transform="translate(-110.76 -9.98)"/><path class="cls-1" d="M176.39,70v.36a1.63,1.63,0,0,1,0-.36Z" transform="translate(-110.76 -9.98)"/><path class="cls-5" d="M184.3,60.79a2.92,2.92,0,0,1-2.77,3.05,2.81,2.81,0,0,1-2.65-2.14,3,3,0,0,1-.13-.91,3,3,0,0,1,.13-.9,2.8,2.8,0,0,1,2.65-2.13A2.9,2.9,0,0,1,184.3,60.79Z" transform="translate(-110.76 -9.98)"/><path class="cls-6" d="M181.12,70.18a2.38,2.38,0,1,1-4.73.18,1.63,1.63,0,0,1,0-.36,2.38,2.38,0,1,1,4.73.18Z" transform="translate(-110.76 -9.98)"/></svg>